<?xml version="1.0" encoding="utf-8"?>
<!-- Generator: Adobe Illustrator 25.2.0, SVG Export Plug-In . SVG Version: 6.00 Build 0)  -->
<svg version="1.1" id="Layer_1" xmlns="http://www.w3.org/2000/svg" xmlns:xlink="http://www.w3.org/1999/xlink" x="0px" y="0px"
	 viewBox="0 0 1600 1200" style="enable-background:new 0 0 1600 1200;" xml:space="preserve">
<style type="text/css">
	.st0{fill:#FFFFFF;}
	.st1{fill:#EB792D;}
</style>
<g>
	<g>
		<path class="st0" d="M759,581.2h11.5c3.1,0,5.8,0.6,8.2,1.9c2.4,1.3,4.3,3,5.6,5.3c1.3,2.3,2,4.8,2,7.7s-0.7,5.4-2,7.7
			c-1.3,2.3-3.2,4-5.6,5.3c-2.4,1.3-5.1,1.9-8.2,1.9H759V581.2z M770.4,609.7c2.9,0,5.4-0.6,7.6-1.7s3.9-2.8,5-4.8
			c1.2-2.1,1.8-4.4,1.8-7s-0.6-4.9-1.8-7s-2.9-3.7-5-4.8c-2.2-1.2-4.7-1.7-7.6-1.7h-10v27.1H770.4z"/>
		<path class="st0" d="M793.1,582.8c-0.3-0.3-0.4-0.6-0.4-1c0-0.4,0.1-0.7,0.4-1s0.6-0.4,1-0.4c0.4,0,0.7,0.1,1,0.4
			c0.3,0.3,0.4,0.6,0.4,1c0,0.4-0.1,0.7-0.4,1c-0.3,0.3-0.6,0.4-1,0.4C793.7,583.2,793.4,583,793.1,582.8z M793.4,588.9h1.4V611
			h-1.4V588.9z"/>
		<path class="st0" d="M823.7,588.9v20c0,3.6-0.9,6.2-2.6,7.9c-1.7,1.7-4.3,2.6-7.8,2.6c-2,0-3.9-0.3-5.7-0.9
			c-1.8-0.6-3.2-1.5-4.2-2.6l0.8-1.1c1.1,1.1,2.5,1.9,4,2.5c1.5,0.6,3.2,0.9,5,0.9c3.1,0,5.4-0.7,6.8-2.2s2.2-3.8,2.2-6.9v-4.7
			c-0.8,1.8-2.1,3.2-3.8,4.3c-1.7,1-3.6,1.6-5.8,1.6c-2.1,0-3.9-0.5-5.6-1.4c-1.7-0.9-3-2.2-3.9-3.8s-1.4-3.5-1.4-5.6
			s0.5-3.9,1.4-5.6s2.3-2.9,3.9-3.8c1.7-0.9,3.5-1.4,5.6-1.4c2.2,0,4.1,0.5,5.8,1.6c1.7,1,3,2.5,3.8,4.3v-5.7H823.7z M817.6,607.8
			c1.5-0.8,2.6-1.9,3.4-3.4c0.8-1.4,1.3-3.1,1.3-4.9c0-1.8-0.4-3.4-1.3-4.9c-0.8-1.4-2-2.5-3.4-3.3s-3.1-1.2-4.9-1.2
			c-1.8,0-3.5,0.4-4.9,1.2s-2.6,1.9-3.4,3.3c-0.8,1.4-1.2,3.1-1.2,4.9c0,1.8,0.4,3.5,1.2,4.9c0.8,1.4,2,2.6,3.4,3.4
			c1.5,0.8,3.1,1.2,4.9,1.2C814.5,609,816.1,608.6,817.6,607.8z"/>
		<path class="st0" d="M832.8,582.8c-0.3-0.3-0.4-0.6-0.4-1c0-0.4,0.1-0.7,0.4-1c0.3-0.3,0.6-0.4,1-0.4c0.4,0,0.7,0.1,1,0.4
			s0.4,0.6,0.4,1c0,0.4-0.1,0.7-0.4,1s-0.6,0.4-1,0.4S833.1,583,832.8,582.8z M833.1,588.9h1.4V611h-1.4V588.9z"/>
		<path class="st0" d="M854.4,609.6c-0.5,0.5-1.2,0.9-2,1.1s-1.6,0.4-2.5,0.4c-1.8,0-3.2-0.5-4.1-1.5c-1-1-1.5-2.4-1.5-4.1v-15.3
			h-4.2v-1.2h4.2v-4.8h1.4v4.8h7.3v1.2h-7.3v15.1c0,1.5,0.4,2.7,1.1,3.4s1.8,1.2,3.2,1.2s2.6-0.4,3.6-1.3L854.4,609.6z"/>
		<path class="st0" d="M873.9,590.8c1.4,1.4,2.1,3.3,2.1,5.9V611h-1.4v-4.4c-0.7,1.4-1.8,2.5-3.2,3.3c-1.4,0.8-3.1,1.2-5,1.2
			c-2.5,0-4.4-0.6-5.8-1.7c-1.4-1.1-2.1-2.6-2.1-4.5c0-1.8,0.6-3.2,1.9-4.4s3.3-1.7,6.1-1.7h8v-2.2c0-2.2-0.6-3.8-1.7-5
			c-1.1-1.1-2.8-1.7-5.1-1.7c-1.6,0-3,0.3-4.4,0.8c-1.4,0.5-2.5,1.3-3.5,2.2l-0.8-1c1.1-1,2.4-1.8,3.9-2.4c1.5-0.6,3.1-0.9,4.8-0.9
			C870.5,588.8,872.5,589.5,873.9,590.8z M874.6,604.6V600h-8c-2.3,0-4,0.4-5,1.3s-1.6,2-1.6,3.5c0,1.6,0.6,2.8,1.8,3.7
			c1.2,0.9,2.8,1.4,4.8,1.4C870.5,610,873.2,608.2,874.6,604.6z"/>
		<path class="st0" d="M885.2,579.5h1.4V611h-1.4V579.5z"/>
		<path class="st0" d="M907.5,581.2h1.4v28.5h17.4v1.3h-18.9V581.2z"/>
		<path class="st0" d="M931.3,582.8c-0.3-0.3-0.4-0.6-0.4-1c0-0.4,0.1-0.7,0.4-1c0.3-0.3,0.6-0.4,1-0.4c0.4,0,0.7,0.1,1,0.4
			s0.4,0.6,0.4,1c0,0.4-0.1,0.7-0.4,1s-0.6,0.4-1,0.4S931.6,583,931.3,582.8z M931.6,588.9h1.4V611h-1.4V588.9z"/>
		<path class="st0" d="M958.8,590.2c1.6,1,2.9,2.3,3.9,4c1,1.7,1.4,3.6,1.4,5.8s-0.5,4.1-1.4,5.8c-1,1.7-2.2,3-3.9,4
			c-1.6,1-3.5,1.4-5.5,1.4c-2.2,0-4.1-0.5-5.8-1.6s-2.9-2.6-3.8-4.5v6h-1.4v-31.6h1.4v15.4c0.8-1.9,2.1-3.4,3.8-4.5
			c1.7-1.1,3.6-1.6,5.7-1.6C955.3,588.8,957.2,589.2,958.8,590.2z M958.1,608.6c1.4-0.8,2.6-2,3.4-3.5c0.8-1.5,1.2-3.2,1.2-5.1
			s-0.4-3.6-1.2-5.1c-0.8-1.5-2-2.7-3.4-3.5c-1.4-0.8-3-1.3-4.8-1.3c-1.8,0-3.4,0.4-4.8,1.3c-1.4,0.8-2.6,2-3.4,3.5
			c-0.8,1.5-1.2,3.2-1.2,5.1s0.4,3.6,1.2,5.1c0.8,1.5,1.9,2.7,3.4,3.5c1.4,0.8,3,1.3,4.8,1.3C955.1,609.9,956.7,609.5,958.1,608.6z"
			/>
		<path class="st0" d="M975.6,590.2c1.5-1,3.3-1.4,5.4-1.4v1.4h-0.4c-2.6,0-4.6,0.8-6,2.4c-1.4,1.6-2.2,3.8-2.2,6.7V611h-1.4v-22.1
			h1.4v5.3C973.1,592.5,974.1,591.1,975.6,590.2z"/>
		<path class="st0" d="M1000.4,590.8c1.4,1.4,2.1,3.3,2.1,5.9V611h-1.4v-4.4c-0.7,1.4-1.8,2.5-3.2,3.3c-1.4,0.8-3.1,1.2-5,1.2
			c-2.5,0-4.4-0.6-5.8-1.7c-1.4-1.1-2.1-2.6-2.1-4.5c0-1.8,0.6-3.2,1.9-4.4s3.3-1.7,6.1-1.7h8v-2.2c0-2.2-0.6-3.8-1.7-5
			c-1.1-1.1-2.8-1.7-5.1-1.7c-1.6,0-3,0.3-4.4,0.8c-1.4,0.5-2.5,1.3-3.5,2.2l-0.8-1c1.1-1,2.4-1.8,3.9-2.4c1.5-0.6,3.1-0.9,4.8-0.9
			C997,588.8,999,589.5,1000.4,590.8z M1001.1,604.6V600h-8c-2.3,0-4,0.4-5,1.3s-1.6,2-1.6,3.5c0,1.6,0.6,2.8,1.8,3.7
			c1.2,0.9,2.8,1.4,4.8,1.4C997,610,999.7,608.2,1001.1,604.6z"/>
		<path class="st0" d="M1016.3,590.2c1.5-1,3.3-1.4,5.4-1.4v1.4h-0.4c-2.6,0-4.6,0.8-6,2.4c-1.4,1.6-2.2,3.8-2.2,6.7V611h-1.4v-22.1
			h1.4v5.3C1013.7,592.5,1014.8,591.1,1016.3,590.2z"/>
		<path class="st0" d="M1045.9,588.9l-11.6,25.4c-0.8,1.8-1.8,3.1-2.8,3.9c-1,0.8-2.3,1.1-3.7,1.1c-1,0-1.9-0.2-2.8-0.5
			c-0.9-0.3-1.6-0.8-2.2-1.5l0.8-1.1c0.6,0.7,1.2,1.1,1.9,1.4c0.7,0.3,1.4,0.4,2.3,0.4c1.1,0,2.1-0.3,2.9-0.9
			c0.8-0.6,1.6-1.7,2.3-3.2l1.4-3l-10-22h1.5l9.3,20.5l9.3-20.5H1045.9z"/>
	</g>
</g>
<g>
	<g>
		<path class="st0" d="M694.8,554.3v8.3h-34.7v-44.8H694v8.3h-23.6v9.7h20.8v8.1h-20.8v10.4H694.8z"/>
		<path class="st0" d="M699.8,540.6H718v8h-18.1V540.6z"/>
		<path class="st0" d="M740.6,549.1l-4.8,4.7v8.8h-10v-47.5h10V542l14.6-13.8h11.9L748,542.8l15.6,19.9h-12.1L740.6,549.1z"/>
		<path class="st0" d="M790.3,561c-1,0.7-2.2,1.3-3.6,1.6c-1.4,0.4-2.9,0.5-4.5,0.5c-4.1,0-7.3-1-9.5-3.1c-2.2-2.1-3.4-5.2-3.4-9.2
			v-14.2H764V529h5.3v-8.4h10v8.4h8.6v7.7h-8.6v14c0,1.5,0.4,2.6,1.1,3.4c0.7,0.8,1.8,1.2,3.2,1.2c1.6,0,2.9-0.4,4-1.3L790.3,561z"
			/>
		<path class="st0" d="M828.4,548.2h-26.1c0.5,2.1,1.6,3.8,3.3,5.1c1.8,1.2,3.9,1.9,6.5,1.9c1.8,0,3.4-0.3,4.8-0.8
			c1.4-0.5,2.7-1.4,3.9-2.5l5.3,5.8c-3.2,3.7-8,5.6-14.2,5.6c-3.9,0-7.3-0.8-10.3-2.3c-3-1.5-5.3-3.6-6.9-6.3
			c-1.6-2.7-2.4-5.7-2.4-9.2c0-3.4,0.8-6.4,2.4-9.1c1.6-2.7,3.8-4.8,6.6-6.3c2.8-1.5,5.9-2.3,9.4-2.3c3.4,0,6.4,0.7,9.2,2.2
			c2.7,1.5,4.9,3.5,6.4,6.2c1.6,2.7,2.3,5.9,2.3,9.4C828.6,545.7,828.6,546.6,828.4,548.2z M805.1,537.2c-1.5,1.3-2.5,3-2.8,5.3h17
			c-0.3-2.2-1.3-3.9-2.8-5.2c-1.5-1.3-3.4-2-5.6-2C808.5,535.2,806.6,535.9,805.1,537.2z"/>
		<path class="st0" d="M864.4,529.9c2.6,1.5,4.7,3.5,6.2,6.2c1.5,2.7,2.2,5.8,2.2,9.3c0,3.5-0.7,6.7-2.2,9.3
			c-1.5,2.7-3.6,4.7-6.2,6.2s-5.5,2.2-8.7,2.2c-4.7,0-8.3-1.5-10.8-4.5v4h-9.5v-47.5h10v16.7c2.5-2.8,6-4.2,10.4-4.2
			C858.9,527.7,861.8,528.4,864.4,529.9z M860.2,552.4c1.6-1.7,2.5-4,2.5-6.9c0-2.9-0.8-5.2-2.5-6.9c-1.6-1.7-3.7-2.6-6.3-2.6
			s-4.7,0.9-6.3,2.6c-1.6,1.7-2.5,4-2.5,6.9c0,2.9,0.8,5.2,2.5,6.9c1.6,1.7,3.7,2.6,6.3,2.6S858.6,554.1,860.2,552.4z"/>
		<path class="st0" d="M900.3,562.6l-7.6-10.6l-7.8,10.6H874l13.3-17.4l-12.8-17.1h11.2l7.3,10.1l7.5-10.1h10.6L898.3,545l13.3,17.6
			H900.3z"/>
		<path class="st0" d="M942,531.5c2.9,2.5,4.3,6.4,4.3,11.5v19.7H937v-4.3c-1.9,3.2-5.4,4.8-10.5,4.8c-2.6,0-4.9-0.4-6.9-1.3
			c-1.9-0.9-3.4-2.1-4.5-3.7c-1-1.6-1.5-3.4-1.5-5.4c0-3.2,1.2-5.7,3.6-7.6c2.4-1.8,6.1-2.8,11.2-2.8h7.9c0-2.2-0.7-3.9-2-5
			c-1.3-1.2-3.3-1.8-6-1.8c-1.8,0-3.6,0.3-5.4,0.9c-1.8,0.6-3.3,1.4-4.5,2.3l-3.6-7c1.9-1.3,4.1-2.3,6.8-3.1
			c2.6-0.7,5.3-1.1,8.1-1.1C935.1,527.7,939.2,529,942,531.5z M933.5,555.3c1.3-0.8,2.3-2,2.8-3.5v-3.5h-6.9c-4.1,0-6.1,1.3-6.1,4
			c0,1.3,0.5,2.3,1.5,3c1,0.7,2.4,1.1,4.1,1.1C930.7,556.4,932.2,556,933.5,555.3z"/>
		<path class="st0" d="M986.7,531.5c2.6,2.6,3.9,6.4,3.9,11.4v19.7h-10v-18.2c0-2.7-0.6-4.8-1.8-6.1c-1.2-1.3-2.9-2-5.2-2
			c-2.5,0-4.5,0.8-6,2.3c-1.5,1.6-2.2,3.9-2.2,6.9v17h-10v-34.5h9.5v4c1.3-1.5,3-2.6,4.9-3.4c2-0.8,4.1-1.2,6.5-1.2
			C980.6,527.7,984,529,986.7,531.5z"/>
		<path class="st0" d="M1025.8,531.5c2.9,2.5,4.3,6.4,4.3,11.5v19.7h-9.3v-4.3c-1.9,3.2-5.4,4.8-10.5,4.8c-2.6,0-4.9-0.4-6.9-1.3
			c-1.9-0.9-3.4-2.1-4.5-3.7c-1-1.6-1.5-3.4-1.5-5.4c0-3.2,1.2-5.7,3.6-7.6c2.4-1.8,6.1-2.8,11.2-2.8h7.9c0-2.2-0.7-3.9-2-5
			c-1.3-1.2-3.3-1.8-6-1.8c-1.8,0-3.6,0.3-5.4,0.9c-1.8,0.6-3.3,1.4-4.5,2.3l-3.6-7c1.9-1.3,4.1-2.3,6.8-3.1
			c2.6-0.7,5.3-1.1,8.1-1.1C1018.9,527.7,1023,529,1025.8,531.5z M1017.3,555.3c1.3-0.8,2.3-2,2.8-3.5v-3.5h-6.9
			c-4.1,0-6.1,1.3-6.1,4c0,1.3,0.5,2.3,1.5,3c1,0.7,2.4,1.1,4.1,1.1C1014.5,556.4,1016,556,1017.3,555.3z"/>
		<path class="st0" d="M1038.5,561.4c-1.2-1.2-1.8-2.7-1.8-4.5c0-1.8,0.6-3.3,1.8-4.5c1.2-1.1,2.7-1.7,4.4-1.7
			c1.8,0,3.2,0.6,4.4,1.7c1.2,1.1,1.8,2.6,1.8,4.5c0,1.8-0.6,3.3-1.8,4.5c-1.2,1.2-2.7,1.8-4.4,1.8
			C1041.2,563.2,1039.7,562.6,1038.5,561.4z"/>
		<path class="st0" d="M1070.7,549.1l-4.8,4.7v8.8h-10v-47.5h10V542l14.6-13.8h11.9l-14.3,14.6l15.6,19.9h-12.1L1070.7,549.1z"/>
		<path class="st0" d="M1112.3,529c2-0.9,4.4-1.3,7-1.3v9.2c-1.1-0.1-1.9-0.1-2.2-0.1c-2.9,0-5.1,0.8-6.7,2.4
			c-1.6,1.6-2.4,4-2.4,7.2v16.3h-10v-34.5h9.5v4.5C1108.7,531.1,1110.3,529.8,1112.3,529z"/>
		<path class="st0" d="M1160,515.1v47.5h-9.5v-4c-2.5,3-6.1,4.5-10.8,4.5c-3.2,0-6.2-0.7-8.8-2.2c-2.6-1.5-4.7-3.5-6.2-6.2
			c-1.5-2.7-2.2-5.8-2.2-9.4c0-3.5,0.7-6.7,2.2-9.4c1.5-2.7,3.6-4.8,6.2-6.2c2.6-1.5,5.6-2.2,8.8-2.2c4.4,0,7.8,1.4,10.3,4.2v-16.7
			H1160z M1147.7,552.4c1.7-1.7,2.5-4,2.5-6.9c0-2.9-0.8-5.2-2.5-6.9s-3.8-2.6-6.3-2.6c-2.6,0-4.7,0.9-6.3,2.6s-2.5,4-2.5,6.9
			c0,2.9,0.8,5.2,2.5,6.9s3.8,2.6,6.3,2.6C1144,555,1146.1,554.1,1147.7,552.4z"/>
	</g>
</g>
<path class="st0" d="M606.2,563.6c-2.2-0.3-8.3-1.3-10.5-1.6c-7.1-1.1-14.2-2.2-21.3-3.3c-14-2.1-27.9-4.2-41.9-6.3
	c-1.2-0.2-2.4-0.4-3.7-0.5c-1.4-0.2-2.5-1.4-2.5-2.9v-16c0-1.8,1.6-3.1,3.3-2.9c7.5,1.1,15,2.1,22.5,3.2c11.5,1.6,23,3.3,34.5,4.9
	l19,2.7c0.3-26.7,0.5-45.9,0.9-51.2c0.1-0.9,0.3-3.6-1.4-5.5c-1.1-1.3-2.9-1.9-5.6-2.3c-5.4-0.8-10.9-1.5-16.3-2.3
	c-23.7-3.4-47.5-7-71.2-10.6c-1.6-0.2-3-0.4-4.4-0.4h-0.2c-1.4,0-2.8,0.1-4,0.3v8.2h8.5v8.5h-4.3v25.6h4.3v8.5h-4.3v8.5h4.3v8.5
	h-4.3v30.1l0,0c1.4,0,2.7,0.1,3.6,0.2c6.5,0.7,21.7,2.8,42.9,6c13.4,2.1,29.3,4.6,46.9,7.5c1-0.6,1.7-1.2,2.3-1.8
	C608.4,573.8,606.5,565.1,606.2,563.6z M585.8,499.1c1.2,0.2,2.2,1.2,2.2,2.5c0,5,0,10,0,15c0,1.5-1.4,2.7-2.9,2.5
	c-9.6-1.4-19.1-2.9-28.7-4.3c-9.4-1.4-18.8-2.8-28.2-4.2c-1.2-0.2-2.2-1.3-2.2-2.5c0-3.2,0.1-6.4,0.1-9.6c0-1.7,0-3.3,0-5
	c0-1.5,1.4-2.7,2.9-2.5C548,493.6,566.9,496.3,585.8,499.1z M520.5,477.2h8.5v8.5h-8.5V477.2z M511.9,494.3h8.5v8.5h-8.5V494.3z
	 M495.4,580.3c-0.6-0.1-1.2-0.2-1.7-0.3c0-0.1,0-0.2,0-0.3h-2.2c0.5,1,1.2,1.7,2.4,2.1c0.8,0.4,1.8,0.6,3,0.8
	c20.8,2.8,41.5,6.1,62.2,9.2c9.1,1.3,18.3,2.5,27.4,3.7c0.1-0.6,0.2-1.2,0.3-1.8C556.4,589.2,525.9,584.8,495.4,580.3z"/>
<path class="st0" d="M598.9,583.5l-1,1.1l-93.4-14.4c0.7-0.4,1.3-0.7,2-1L598.9,583.5z"/>
<path class="st0" d="M596.6,586l-1,1.1l-94-14.4c0.4-0.4,0.7-0.8,1.1-1.1L596.6,586z"/>
<path class="st0" d="M594.2,588.4l-1,1.1l-93.4-14.4c0.2-0.4,0.5-0.8,0.7-1.2L594.2,588.4z"/>
<path class="st0" d="M591.9,590.9l-1,1.1l-92.2-14.2c0.1-0.4,0.3-0.8,0.5-1.2L591.9,590.9z"/>
<path class="st1" d="M537.5,579.7l10.2,1.6l-3.9,15.9c-1.2-2.4-2.4-4.8-3.5-7.2c-2.2,1.7-4.4,3.4-6.7,5.1L537.5,579.7z"/>
<path class="st0" d="M507.6,567.1l-2.5,2.7l-0.4,0.4l-1.3,1.4l-1,1.1l-1.3,1.4l-1,1.1l-4.1,4.5l-0.5,0.5l-1.5,1.6
	c-1.1-0.5-1.9-1.1-2.4-2.1h2.2c0.9-4.6,2.9-8,5.7-10.1C502.1,567.7,505.1,567.2,507.6,567.1z"/>
<rect x="435.1" y="545.6" class="st0" width="8.5" height="8.5"/>
<rect x="443.6" y="571.2" class="st0" width="8.5" height="8.6"/>
<rect x="469.2" y="477.2" class="st0" width="8.5" height="8.5"/>
<rect x="460.7" y="502.8" class="st0" width="17.1" height="8.6"/>
<rect x="469.2" y="537" class="st0" width="8.5" height="8.5"/>
<rect x="469.2" y="519.9" class="st0" width="17.1" height="8.5"/>
<polygon class="st0" points="452.1,545.6 452.1,554.1 460.7,554.1 460.7,562.6 469.2,562.6 469.2,545.6 "/>
<rect x="452.1" y="519.9" class="st0" width="8.5" height="8.5"/>
<rect x="435.1" y="511.4" class="st0" width="8.5" height="8.5"/>
<rect x="443.6" y="528.5" class="st0" width="8.5" height="8.5"/>
<rect x="486.3" y="511.4" class="st0" width="8.5" height="8.5"/>
<path class="st0" d="M507.6,468.7v8.5h-4.2V469c1.3-0.2,2.6-0.3,4-0.3L507.6,468.7L507.6,468.7z"/>
<path class="st0" d="M503.4,528.5v8.5h4.2v30.1l0,0c-2.5,0-5.5,0.6-8.1,2.5c-2.9,2.1-4.9,5.5-5.7,10.1h-33.1v-8.6h25.6v-8.5h8.5
	v-8.5h-8.5v8.5h-8.5v-17.1h17.1V537h-8.5v-8.5h8.5v-8.5h12.7v8.5H503.4z"/>
<polygon class="st0" points="507.6,485.8 507.6,511.4 494.9,511.4 494.9,502.8 503.4,502.8 503.4,494.3 494.9,494.3 494.9,485.8 "/>
<polygon class="st0" points="494.9,494.3 494.9,502.8 477.8,502.8 477.8,485.8 486.3,485.8 486.3,494.3 "/>
<rect x="486.3" y="468.7" class="st0" width="8.5" height="8.5"/>
</svg>
