<?xml version="1.0" encoding="iso-8859-1"?>
<!-- Generator: Adobe Illustrator 19.0.0, SVG Export Plug-In . SVG Version: 6.00 Build 0)  -->
<svg version="1.1" id="Layer_1" xmlns="http://www.w3.org/2000/svg" xmlns:xlink="http://www.w3.org/1999/xlink" x="0px" y="0px"
	 viewBox="0 0 491.52 491.52" style="enable-background:new 0 0 491.52 491.52;" xml:space="preserve">
<g>
	<g>
		<g>
			<rect x="0" y="143.36" width="102.4" height="81.92"/>
			<rect x="143.36" y="0" width="81.92" height="102.4"/>
			<rect x="143.36" y="143.36" width="81.92" height="81.92"/>
			<rect x="0" y="266.24" width="102.4" height="81.92"/>
			<rect x="266.24" y="143.36" width="81.92" height="81.92"/>
			<rect x="143.36" y="266.24" width="81.92" height="81.92"/>
			<rect x="389.12" y="0" width="102.4" height="102.4"/>
			<rect x="266.24" y="0" width="81.92" height="102.4"/>
			<rect x="389.12" y="143.36" width="102.4" height="81.92"/>
			<rect x="0" y="0" width="102.4" height="102.4"/>
			<rect x="0" y="389.12" width="102.4" height="102.4"/>
			<rect x="389.12" y="389.12" width="102.4" height="102.4"/>
			<rect x="389.12" y="266.24" width="102.4" height="81.92"/>
			<rect x="266.24" y="389.12" width="81.92" height="102.4"/>
			<rect x="143.36" y="389.12" width="81.92" height="102.4"/>
			<rect x="266.24" y="266.24" width="81.92" height="81.92"/>
		</g>
	</g>
</g>
<g>
</g>
<g>
</g>
<g>
</g>
<g>
</g>
<g>
</g>
<g>
</g>
<g>
</g>
<g>
</g>
<g>
</g>
<g>
</g>
<g>
</g>
<g>
</g>
<g>
</g>
<g>
</g>
<g>
</g>
</svg>
